{"title":"Rick and Morty Season 1 (fiveofseven zombiRG)","uid":13090486,"size":1662973566,"categoryP":"video","categoryS":"tv_shows","magnet":"?xt=urn:btih:29139c549c9601e16f4ee7346be3faea243af130&amp;dn=Rick+and+Morty+Season+1+%28fiveofseven+zombiRG%29&amp;tr=udp%3A%2F%2Ftracker.leechers-paradise.org%3A6969&amp;tr=udp%3A%2F%2Fzer0day.ch%3A1337&amp;tr=udp%3A%2F%2Fopen.demonii.com%3A1337&amp;tr=udp%3A%2F%2Ftracker.coppersurfer.tk%3A6969&amp;tr=udp%3A%2F%2Fexodus.desync.com%3A6969","seeders":12,"leechers":2,"uploader":"fiveofseven","files":22,"time":1451026842,"description":"AAC 2.0 Track 1 &amp; Commentary Track 2\r\n\r\n\r\nI wanted a set of small files, so I made them for myself.\r\nDecided to share them with you all too.\r\n\r\n\r\nPLOT - Rick is an eccentric, elderly, alcoholic scientist who has moved in with the family \r\nof his veterinarian daughter, Beth. He spends most of his time taking his young grandson \r\nMorty (and later his granddaughter Summer) on dangerous, outlandish adventures throughout \r\nthe cosmos and alternate universes. Compounded with Morty's already unstable family life, \r\nthese events cause Morty much distress at home and school.\r\n\r\n\r\nINFO\r\n\r\nEncoder: fiveofseven\r\nSource: Blu-Ray\r\nRating: TV-MA\r\nGenre: Animation, Adventure, Comedy\r\nSubtitles: English\r\nPoster: \r  https://yuq.me/users/25/564/HxsaBmhpyZ.jpg \r\n\r\nDetails based on Episode 1 only\r\nGeneral\r\nComplete name                            : 01 Pilot - fiveofseven.mp4\r\nFormat                                   : MPEG-4\r\nFormat profile                           : Base Media\r\nCodec ID                                 : isom\r\nFile size                                : 142 MiB\r\nDuration                                 : 22mn 1s\r\nOverall bit rate mode                    : Variable\r\nOverall bit rate                         : 899 Kbps\r\nEncoded date                             : UTC 2015-07-06 22:49:59\r\nTagged date                              : UTC 2015-07-07 22:44:42\r\nWriting application                      : My MP4Box GUI 0.6.0.6 &lt;http://my-mp4box-gui.zymichost.com&gt;\r\nComment                                  : Encoded by fiveofseven\r\n\r\nVideo\r\nID                                       : 1\r\nFormat                                   : AVC\r\nFormat/Info                              : Advanced Video Codec\r\nFormat profile                           :   \r\nFormat settings, CABAC                   : Yes\r\nFormat settings, ReFrames                : 5 frames\r\nCodec ID                                 : avc1\r\nCodec ID/Info                            : Advanced Video Coding\r\nDuration                                 : 22mn 1s\r\nBit rate                                 : 446 Kbps\r\nMaximum bit rate                         : 3 089 Kbps\r\nWidth                                    : 720 pixels\r\nHeight                                   : 400 pixels\r\nDisplay aspect ratio                     : 16:9\r\nFrame rate mode                          : Constant\r\nFrame rate                               : 23.976 fps\r\nColor space                              : YUV\r\nChroma subsampling                       : 4:2:0\r\nBit depth                                : 8 bits\r\nScan type                                : Progressive\r\nBits/(Pixel*Frame)                       : 0.065\r\nStream size                              : 70.3 MiB (50%)\r\nTitle                                    : ram 01.mp4\r\nWriting library                          : x264 core 133 r2334 a3ac64b\r\nLanguage                                 : English\r\nEncoded date                             : UTC 2015-07-06 18:07:12\r\nTagged date                              : UTC 2015-07-06 22:50:11\r\n\r\nAudio #1\r\nID                                       : 2\r\nFormat                                   : AAC\r\nFormat/Info                              : Advanced Audio Codec\r\nFormat profile                           : LC\r\nCodec ID                                 : 40\r\nDuration                                 : 22mn 1s\r\nBit rate mode                            : Variable\r\nBit rate                                 : 128 Kbps\r\nMaximum bit rate                         : 135 Kbps\r\nChannel count                            : 2 channels\r\nChannel positions                        : Front: L R\r\nSampling rate                            : 48.0 KHz\r\nCompression mode                         : Lossy\r\nDelay relative to video                  : 83ms\r\nStream size                              : 20.2 MiB (14%)\r\nTitle                                    : aac 2.0.mp4\r\nLanguage                                 : English\r\nEncoded date                             : UTC 2015-07-06 22:50:07\r\nTagged date                              : UTC 2015-07-06 22:50:11\r\n\r\nAudio #2\r\nID                                       : 3\r\nFormat                                   : AC-3\r\nFormat/Info                              : Audio Coding 3\r\nMode extension                           : CM (complete main)\r\nFormat settings, Endianness              : Big\r\nCodec ID                                 : ac-3\r\nDuration                                 : 22mn 1s\r\nBit rate mode                            : Constant\r\nBit rate                                 : 320 Kbps\r\nChannel count                            : 6 channels\r\nChannel positions                        : Front: L C R, Side: L R, LFE\r\nSampling rate                            : 48.0 KHz\r\nBit depth                                : 16 bits\r\nCompression mode                         : Lossy\r\nDelay relative to video                  : 83ms\r\nStream size                              : 50.4 MiB (36%)\r\nTitle                                    : ac3 5.1.ac3\r\nLanguage                                 : English\r\nEncoded date                             : UTC 2015-07-06 22:50:08\r\nTagged date                              : UTC 2015-07-06 22:50:11\r\n\r\n\r\nScreenshots - \r\n  \nhttps://yuq.me/users/25/564/x0PKgwaRjt.png \r\n  \nhttps://yuq.me/users/25/564/peVsNiZcvU.png \r\n  \nhttps://yuq.me/users/25/564/7IscxY158w.png \r\n  \nhttps://yuq.me/users/25/564/WZlAzCJkTa.png \r\n \r\nsignature \r\n  \nhttps://yuq.me/users/25/564/aegRQCBILx.png","torrent":{"xt":"urn:btih:29139c549c9601e16f4ee7346be3faea243af130","amp;dn":"Rick+and+Morty+Season+1+%28fiveofseven+zombiRG%29","amp;tr":["udp%3A%2F%2Ftracker.leechers-paradise.org%3A6969","udp%3A%2F%2Fzer0day.ch%3A1337","udp%3A%2F%2Fopen.demonii.com%3A1337","udp%3A%2F%2Ftracker.coppersurfer.tk%3A6969","udp%3A%2F%2Fexodus.desync.com%3A6969"],"infoHash":"29139c549c9601e16f4ee7346be3faea243af130","infoHashBuffer":{"type":"Buffer","data":[41,19,156,84,156,150,1,225,111,78,231,52,107,227,250,234,36,58,241,48]},"announce":[],"urlList":[]}}